<svg xmlns="http://www.w3.org/2000/svg" xmlns:xlink="http://www.w3.org/1999/xlink"><symbol id="icon-arrow" viewBox="0 0 447.243 447.243"><path d="M420.361 192.229a31.967 31.967 0 00-5.535-.41H99.305l6.88-3.2a63.998 63.998 0 0018.08-12.8l88.48-88.48c11.653-11.124 13.611-29.019 4.64-42.4-10.441-14.259-30.464-17.355-44.724-6.914a32.018 32.018 0 00-3.276 2.754l-160 160c-12.504 12.49-12.515 32.751-.025 45.255l.025.025 160 160c12.514 12.479 32.775 12.451 45.255-.063a32.084 32.084 0 002.745-3.137c8.971-13.381 7.013-31.276-4.64-42.4l-88.32-88.64a64.002 64.002 0 00-16-11.68l-9.6-4.32h314.24c16.347.607 30.689-10.812 33.76-26.88 2.829-17.445-9.019-33.88-26.464-36.71z"/></symbol><symbol id="icon-comment" viewBox="0 0 512 512"><path d="M424.7 128.531h-11.231v87.301c0 64.68-52.621 117.3-117.301 117.3H128.531v11.235c0 48.137 39.164 87.297 87.301 87.297h179.336l92.23 76.86a14.999 14.999 0 009.606 3.476c8.246 0 14.996-6.691 14.996-15V215.832c0-48.21-39.004-87.3-87.3-87.3zm0 0"/><path d="M383.469 215.832V87.301C383.469 39.004 344.383 0 296.168 0H87.301C39.004 0 0 39.086 0 87.3v281.17c0 8.304 6.75 15 14.996 15 3.445 0 6.86-1.188 9.606-3.48l92.23-76.856h179.336c48.137 0 87.3-39.16 87.3-87.301zm-191.735 23.035c-8.28 0-15-6.719-15-15s6.72-15 15-15c8.278 0 15 6.719 15 15s-6.722 15-15 15zm15-66.34v3.141c0 8.281-6.718 15-15 15-8.285 0-15-6.719-15-15v-16.066c0-8.286 6.715-15 15-15 13.875 0 25.164-11.293 25.164-25.168 0-13.88-11.289-25.168-25.164-25.168-6.734 0-13.05 2.617-17.8 7.367s-7.368 11.066-7.368 17.781c0 8.285-6.714 15.012-15 15.012s-15-6.711-15-14.992v-.02c0-14.726 5.739-28.578 16.153-38.992 10.418-10.418 24.265-16.156 38.996-16.156 30.437 0 55.183 24.75 55.183 55.168 0 25.222-17.011 46.546-40.164 53.093zm0 0"/></symbol><symbol id="icon-eye" viewBox="0 0 488.85 488.85"><path d="M244.425 98.725c-93.4 0-178.1 51.1-240.6 134.1-5.1 6.8-5.1 16.3 0 23.1 62.5 83.1 147.2 134.2 240.6 134.2s178.1-51.1 240.6-134.1c5.1-6.8 5.1-16.3 0-23.1-62.5-83.1-147.2-134.2-240.6-134.2zm6.7 248.3c-62 3.9-113.2-47.2-109.3-109.3 3.2-51.2 44.7-92.7 95.9-95.9 62-3.9 113.2 47.2 109.3 109.3-3.3 51.1-44.8 92.6-95.9 95.9zm-3.1-47.4c-33.4 2.1-61-25.4-58.8-58.8 1.7-27.6 24.1-49.9 51.7-51.7 33.4-2.1 61 25.4 58.8 58.8-1.8 27.7-24.2 50-51.7 51.7z"/></symbol><symbol id="icon_star" viewBox="0 -10 511.987 511"><path d="M510.652 185.902a27.158 27.158 0 00-23.425-18.71l-147.774-13.419-58.433-136.77C276.71 6.98 266.898.494 255.996.494s-20.715 6.487-25.023 16.534l-58.434 136.746-147.797 13.418a27.208 27.208 0 00-23.402 18.71c-3.371 10.368-.258 21.739 7.957 28.907l111.7 97.96-32.938 145.09c-2.41 10.668 1.73 21.696 10.582 28.094 4.757 3.438 10.324 5.188 15.937 5.188 4.84 0 9.64-1.305 13.95-3.883l127.468-76.184 127.422 76.184c9.324 5.61 21.078 5.097 29.91-1.305a27.223 27.223 0 0010.582-28.094l-32.937-145.09 111.699-97.94a27.224 27.224 0 007.98-28.927zm0 0"/></symbol><symbol id="icon_star_border" viewBox="0 -10 511.987 511"><path d="M114.594 491.14c-5.61 0-11.18-1.75-15.934-5.187a27.223 27.223 0 01-10.582-28.094l32.938-145.09L9.312 214.81a27.188 27.188 0 01-7.976-28.907 27.208 27.208 0 0123.402-18.71l147.797-13.419L230.97 17.027C235.277 6.98 245.089.492 255.992.492s20.715 6.488 25.024 16.512l58.433 136.77 147.774 13.417c10.882.98 20.054 8.344 23.425 18.711 3.372 10.368.254 21.739-7.957 28.907L390.988 312.75l32.938 145.086c2.414 10.668-1.727 21.7-10.578 28.098-8.832 6.398-20.61 6.89-29.91 1.3l-127.446-76.16-127.445 76.203c-4.309 2.559-9.11 3.864-13.953 3.864zm141.398-112.874c4.844 0 9.64 1.3 13.953 3.859l120.278 71.938-31.086-136.942a27.21 27.21 0 018.62-26.516l105.473-92.5-139.543-12.671a27.18 27.18 0 01-22.613-16.493L255.992 39.895 200.844 168.96c-3.883 9.195-12.524 15.512-22.547 16.43L38.734 198.062l105.47 92.5c7.554 6.614 10.858 16.77 8.62 26.54l-31.062 136.937 120.277-71.914c4.309-2.559 9.11-3.86 13.953-3.86zm-84.586-221.848s0 .023-.023.043zm169.13-.063l.023.043c0-.023 0-.023-.024-.043zm0 0"/></symbol><symbol id="icon_star_half" viewBox="0 0 475.044 475.044"><path d="M474.487 183.276c-1.711-5.236-6.852-8.52-15.41-9.851l-143.323-20.839L251.52 22.681c-4-7.804-8.661-11.704-13.989-11.704-5.519 0-10.183 3.9-13.988 11.704l-64.241 129.905-143.324 20.839c-8.564 1.332-13.704 4.615-15.415 9.851-1.709 5.236.478 10.898 6.567 16.989l103.924 101.068-24.553 142.749c-.95 6.286-.381 11.173 1.715 14.702 2.092 3.524 5.33 5.283 9.707 5.283 3.237 0 7.043-1.14 11.42-3.433l128.194-67.382 128.19 67.382c4.377 2.286 8.186 3.433 11.423 3.433 4.381 0 7.622-1.759 9.709-5.283 2.088-3.529 2.659-8.416 1.708-14.702l-24.551-142.749 103.63-101.068c6.284-6.091 8.566-11.753 6.841-16.989zm-135.89 91.789l-13.99 13.421 3.43 18.843 17.128 101.357-90.786-47.965-16.848-8.856V76.927l45.395 91.933 8.559 17.128 18.85 2.856 101.642 14.844-73.38 71.377z"/></symbol></svg>